PathFileType	4	(X/Y/Z)	C:/Users/beibeiliu/ov580/test_trc\sequence.37_training_dense_left.trc
DataRate	CameraRate	NumFrames	NumMarkers	Units	OrigDataRate	OrigDataStartFrame	OrigNumFrames
120	120	10	19	mm	120	68	269
Frame#	Time	ThumbCMC			ThumbMCP			ThumbIP			ThumbTip			IndexMCP			IndexPIP			IndexTip			MiddleMCP			MiddlePIP			MiddleTip			RingMCP			RingPIP			RingTip			PinkyMCP			PinkyPIP			PinkyTip			BackHand1			BackHand2			BackHand3	
		X0	Y0	Z0	X1	Y1	Z1	X2	Y2	Z2	X3	Y3	Z3	X4	Y4	Z4	X5	Y5	Z5	X6	Y6	Z6	X7	Y7	Z7	X8	Y8	Z8	X9	Y9	Z9	X10	Y10	Z10	X11	Y11	Z11	X12	Y12	Z12	X13	Y13	Z13	X14	Y14	Z14	X15	Y15	Z15	X16	Y16	Z16	X17	Y17	Z17	X18	Y18	Z18	
67	0.558333	-228.434	-9.91376	51.5089	-209.608	-19.0702	29.496	-201.861	-28.4985	6.78606	-199.67	-47.6995	-8.15532	-256.53	-36.3467	0.0540918	-240.621	-47.0506	-21.26	-211.902	-48.5049	-13.0836	-253.72	-57.6603	0.220213	-227.165	-66.594	-9.64723	-212.39	-57.9378	16.6611	-247.334	-72.0564	11.6423	-218.913	-71.9318	12.0061	-215.369	-57.2958	33.455	-242.774	-83.9104	26.4437	-219.121	-78.1224	27.3116	-220.179	-58.289	44.8462	-267.839	-51.0883	56.757	-262.307	-43.017	77.4126	-261.376	-22.99	57.056	
68	0.566667	-227.724	-6.47079	61.2919	-208.486	-14.099	37.213	-203.572	-24.2401	18.8941	-196.763	-40.5236	-0.430487	-255.073	-32.0336	4.40859	-234.9	-44.2601	-14.1421	-211.242	-46.052	-1.45992	-252.781	-54.0584	6.70401	-227.017	-62.8472	-2.30637	-210.417	-50.5099	22.5422	-246.669	-65.9577	19.0271	-218.5	-67.5942	17.5975	-212.135	-56.6106	40.8756	-242.468	-81.8206	34.4935	-218.241	-72.8689	31.8946	-218.368	-53.7495	48.0985	-266.116	-49.1123	60.446	-264.079	-42.7258	87.0222	-260.619	-22.571	64.2269	
69	0.575	-228.791	-6.09818	71.5691	-210.308	-12.4717	43.9061	-202.709	-19.6113	23.7632	-195.683	-34.4204	7.33566	-253.48	-24.6047	10.4354	-232.73	-38.1767	-5.25137	-209.605	-39.0581	8.52003	-249.112	-50.8818	11.8427	-224.061	-57.8546	5.42032	-210.249	-44.079	34.0118	-243.786	-65.4352	26.3996	-217.337	-65.6258	24.1724	-211.88	-49.2722	47.0309	-241.005	-77.5763	39.3139	-217.591	-68.4866	37.2128	-214.438	-52.4583	55.2183	-265.883	-46.9912	71.8609	-261.171	-40.2682	97.9186	-259.969	-19.1224	73.2366	
70	0.583333	-226.064	-0.807847	77.489	-210.381	-10.923	53.9694	-200.758	-16.5925	31.345	-195.657	-30.9889	12.961	-252.049	-19.9984	17.301	-234.49	-29.1477	-0.57721	-206.286	-34.095	18.1678	-247.688	-41.4107	19.378	-221.766	-51.5885	12.234	-208.722	-37.9658	38.2737	-243.267	-60.9641	32.163	-213.712	-56.4081	32.1023	-212.785	-44.2617	58.4287	-238.628	-73.9257	44.1207	-215.643	-68.8525	45.124	-216.97	-45.9947	63.2289	-264.823	-45.3927	75.1975	-258.921	-33.5536	101.317	-258.334	-15.3165	80.5194	
71	0.591667	-225.308	1.03738	81.274	-205.174	-4.92517	61.7036	-200.234	-15.1022	39.2395	-192.099	-27.6628	19.5876	-249.496	-20.2425	25.2633	-228.374	-27.4619	8.16749	-204.287	-29.1094	26.1177	-246.91	-37.7612	25.3718	-218.692	-43.6006	17.4807	-207.988	-33.4973	48.7773	-238.781	-54.4546	35.0176	-214.778	-54.844	35.4103	-211.263	-41.275	64.9066	-240.169	-68.3165	52.7038	-214.608	-61.5139	50.3216	-214.492	-41.7796	70.269	-262.819	-41.5202	78.9721	-259.464	-33.2553	106.17	-256.953	-9.45256	84.3644	
72	0.6	-222.18	4.95734	91.7193	-204.297	-2.98304	67.0169	-196.134	-9.01033	44.1334	-193.359	-25.4726	26.5645	-248.351	-15.7162	30.4881	-228.614	-24.9603	13.5507	-203.375	-23.8714	28.4203	-243.647	-37.1564	29.3908	-215.225	-43.3902	26.6131	-206.463	-33.7766	54.2928	-237.803	-52.4395	41.0604	-210.439	-49.0561	42.5939	-209.886	-35.7232	69.1839	-238.294	-61.5088	55.7619	-213.042	-59.1705	55.1974	-211.171	-42.2775	77.7622	-262.454	-39.64	87.572	-257.834	-29.6481	114.573	-255.788	-9.80414	93.0937	
73	0.608333	-222.388	5.75843	97.4415	-206.441	-2.702	69.9014	-196.961	-9.59544	46.5699	-188.826	-21.0586	31.2287	-246.742	-9.58213	36.6545	-225.561	-17.2797	16.9256	-201.36	-22.1823	36.1895	-242.227	-30.0921	35.0617	-216.104	-38.9639	28.1399	-205.281	-30.1046	61.0966	-237.935	-46.6307	45.814	-209.053	-44.1703	47.9727	-209.188	-34.6617	74.8078	-233.74	-60.071	57.0129	-210.19	-56.7385	61.2863	-214.77	-37.1258	80.5538	-259.756	-34.3587	88.407	-257.366	-33.2184	114.843	-254.942	-8.62599	95.776	
74	0.616667	-223.063	5.63167	100.139	-202.453	2.71967	73.5739	-195.622	-7.20296	50.0896	-186.927	-16.5669	34.0539	-244.935	-8.05605	39.8219	-224.951	-16.5528	21.6558	-199.358	-15.5142	38.0572	-240.131	-28.1513	36.0832	-213.476	-35.231	32.2944	-201.462	-25.819	60.2426	-237.052	-42.6701	49.3026	-206.228	-44.0683	51.157	-205.756	-34.5387	73.4716	-233.077	-59.9302	61.7359	-211.409	-53.298	61.2105	-212.333	-36.0015	82.0499	-256.717	-36.7205	95.5331	-256.124	-26.5986	120.157	-253.502	-5.38435	100.451	
75	0.625	-221.415	9.73878	101.112	-202.764	1.95326	76.1754	-194.5	-2.42961	55.2991	-186.516	-14.6492	37.3227	-245.847	-8.46596	42.6931	-222.244	-15.3364	25.3024	-198.704	-11.4737	40.8211	-240.327	-25.7468	39.9466	-212.248	-33.3772	34.2047	-202.452	-23.7949	66.1305	-234.281	-44.9807	50.8229	-207.536	-39.6732	50.1878	-206.458	-31.4873	80.341	-232.939	-55.6088	65.368	-208.27	-52.842	64.3952	-210.352	-32.7504	83.8977	-256.634	-31.7682	92.4425	-253.977	-26.0217	124	-254.173	-6.26667	106.025	
76	0.633333	-221.618	11.0744	99.906	-201.776	5.37697	77.682	-196.327	-4.16423	56.0067	-185.997	-12.2735	36.7586	-244.97	-1.37406	44.432	-222.444	-8.47999	24.4017	-199.759	-11.3548	41.9594	-238.374	-25.3991	39.4567	-210.208	-31.8343	35.6318	-199.861	-21.2637	63.8582	-233.994	-39.8927	51.2968	-204.335	-40.4728	53.5303	-203.695	-31.3714	77.9739	-229.516	-56.9537	64.4809	-206.564	-50.2064	64.7103	-208.632	-30.2422	87.9499	-254.339	-32.3345	98.0575	-255.028	-30.656	121.596	-255.271	-6.43979	102.825	
